<mxfile host="app.diagrams.net" modified="2023-10-18T10:40:39.466Z" agent="Mozilla/5.0 (Macintosh; Intel Mac OS X 10_15_7) AppleWebKit/605.1.15 (KHTML, like Gecko) Version/17.0 Safari/605.1.15" version="22.0.4" etag="XWMRZLIAz-Dr5cQJ7c78" type="github">
  <diagram name="Страница — 1" id="I_KZNejQyo7qqCatDFjQ">
    <mxGraphModel>
      <root>
        <mxCell id="0" />
        <mxCell id="1" parent="0" />
      </root>
    </mxGraphModel>
  </diagram>
</mxfile>
